<?xml version="1.0" standalone="no"?>
<!DOCTYPE svg PUBLIC "-//W3C//DTD SVG 20010904//EN"
 "http://www.w3.org/TR/2001/REC-SVG-20010904/DTD/svg10.dtd">
<svg version="1.0" xmlns="http://www.w3.org/2000/svg"
 width="385.000000pt" height="385.000000pt" viewBox="0 0 385.000000 385.000000"
 preserveAspectRatio="xMidYMid meet">
<metadata>
Created by potrace 1.14, written by Peter Selinger 2001-2017
</metadata>
<g transform="translate(0.000000,385.000000) scale(0.100000,-0.100000)"
fill="#000000" stroke="none">
<path d="M1679 2558 c-12 -5 -25 -6 -30 -3 -4 3 -16 2 -26 -3 -10 -6 -45 -20
-78 -32 -138 -53 -245 -151 -316 -291 -19 -36 -35 -71 -37 -78 -1 -7 -9 -39
-16 -70 -13 -61 -14 -185 -1 -241 5 -19 9 -37 10 -40 4 -22 30 -87 38 -98 6
-8 4 -26 -7 -56 -23 -61 -28 -83 -31 -151 -7 -172 114 -242 370 -212 76 9 109
17 117 30 13 22 -5 29 -56 22 -88 -12 -265 -15 -271 -5 -3 6 -14 10 -25 10
-23 0 -86 62 -88 87 -2 21 -1 113 0 131 1 6 5 12 10 12 5 0 7 3 5 8 -3 4 -1
18 4 31 l10 24 24 -33 c25 -34 80 -88 126 -125 39 -31 125 -75 133 -68 3 3 6
1 6 -5 0 -7 11 -12 24 -12 14 0 28 -5 31 -10 4 -6 11 -8 16 -4 5 3 15 1 22 -4
7 -5 61 -9 122 -7 109 2 137 7 200 29 11 4 28 12 37 17 10 5 25 9 33 9 8 0 15
4 15 9 0 5 15 16 33 24 17 9 52 34 77 56 24 23 49 41 54 41 5 0 7 3 3 6 -5 5
10 27 40 59 19 20 74 133 76 155 1 11 4 20 7 20 5 0 10 22 13 63 1 9 4 17 7
17 7 0 6 182 -2 195 -3 6 -9 28 -13 50 -10 48 -8 43 -25 80 -7 17 -13 33 -12
38 1 4 -2 7 -8 7 -5 0 -10 5 -10 11 0 18 -57 94 -108 143 -43 41 -148 118
-162 118 -7 1 -22 5 -45 14 -11 4 -23 8 -27 9 -5 2 -10 4 -13 5 -7 3 -14 5
-65 15 -58 11 -165 12 -191 3z m61 -152 c0 -3 -18 -23 -39 -46 -30 -33 -44
-41 -58 -35 -21 10 -19 9 -61 19 -18 4 -30 12 -26 17 3 5 9 7 14 4 4 -3 10 -1
12 5 5 15 158 50 158 36z m158 -13 c81 -9 251 -144 212 -168 -6 -4 -9 -13 -6
-20 6 -16 -32 -62 -54 -66 -8 -1 -27 1 -42 5 -32 9 -60 -4 -87 -43 -34 -47
-33 -86 1 -116 39 -35 104 -35 182 -2 21 10 40 17 43 17 2 0 17 -13 33 -30 24
-25 28 -35 24 -72 -11 -99 -48 -178 -118 -255 -27 -29 -55 -53 -62 -53 -7 0
-14 -4 -16 -8 -4 -11 -87 -48 -125 -57 -31 -6 -33 -5 -31 19 1 14 6 26 10 26
4 0 5 9 3 21 -4 21 17 47 70 84 33 23 64 55 66 67 6 46 -14 93 -45 103 -22 7
-51 13 -89 18 -13 2 -28 7 -35 11 -7 4 -12 2 -12 -4 0 -6 -5 -8 -10 -5 -6 4
-21 8 -34 11 -24 4 -88 34 -74 34 4 0 0 9 -9 20 -10 11 -25 20 -34 20 -37 0
-68 -91 -46 -135 5 -11 26 -40 46 -65 35 -44 36 -46 37 -137 l1 -92 -26 3
c-116 16 -235 107 -292 222 l-30 61 30 51 c26 45 28 52 14 63 -12 11 -18 9
-33 -10 -9 -13 -20 -20 -22 -15 -7 10 -7 135 -1 146 2 4 30 -5 62 -21 51 -26
59 -35 81 -85 25 -59 45 -70 74 -40 30 29 36 50 25 83 -10 29 -8 33 36 76 43
40 75 60 61 36 -4 -5 -3 -11 1 -13 5 -1 19 -28 33 -58 27 -62 39 -80 51 -80
12 0 69 61 69 74 0 15 -19 86 -29 111 -31 74 -30 77 25 131 34 32 52 57 50 70
-2 10 1 22 6 25 5 3 2 13 -6 22 -9 8 -16 22 -16 29 0 8 3 9 8 3 4 -5 17 -11
30 -12z m-72 -34 c15 -17 12 -22 -40 -75 -31 -32 -56 -65 -56 -73 0 -9 11 -52
25 -96 27 -89 30 -109 14 -99 -12 7 -44 75 -41 87 1 4 -3 7 -9 7 -5 0 -8 4 -5
8 3 5 -4 19 -15 31 -23 24 -28 22 -82 -31 -15 -16 -31 -28 -36 -28 -5 0 -13
-9 -16 -20 -3 -11 -13 -20 -21 -20 -8 0 -12 -4 -9 -10 3 -5 1 -10 -6 -10 -12
0 -9 -33 7 -75 7 -18 6 -18 -9 -6 -9 7 -15 17 -12 21 3 4 -2 13 -10 20 -8 7
-12 16 -9 21 3 5 -15 19 -40 31 -26 12 -46 28 -46 34 0 10 7 9 28 -2 15 -7 30
-14 34 -14 7 0 94 86 135 133 21 25 21 26 3 47 -10 12 -21 21 -24 20 -13 -2
-76 24 -76 32 0 4 -6 8 -14 8 -8 0 -17 4 -20 8 -7 12 45 13 60 1 7 -6 18 -8
24 -4 5 3 10 1 10 -6 0 -7 3 -9 6 -6 4 3 14 2 24 -3 9 -5 31 -12 49 -15 28 -5
37 0 81 48 53 57 71 64 96 36z m-308 -123 c47 -20 52 -32 20 -46 -13 -5 -20
-9 -15 -9 13 -1 -44 -59 -63 -64 -10 -3 -27 1 -38 9 -17 12 -23 11 -46 -11
l-27 -25 4 23 c1 12 10 36 18 52 43 85 64 107 89 96 8 -4 34 -15 58 -25z m675
-148 c15 -57 13 -75 -7 -59 -18 14 -59 15 -91 2 -16 -7 -37 -14 -45 -16 -8 -2
-15 -4 -15 -6 0 -6 -63 -4 -77 3 -19 9 -16 52 7 74 13 14 60 14 82 1 6 -4 21
2 33 13 13 11 27 20 32 20 5 0 16 17 25 37 l15 37 13 -24 c7 -14 20 -51 28
-82z m-444 -254 c20 -4 55 -8 78 -10 70 -5 121 -23 128 -44 7 -23 -11 -44 -77
-89 -27 -18 -48 -35 -49 -39 0 -4 -2 -14 -4 -22 -2 -8 -6 -25 -9 -37 -9 -41
-31 -76 -48 -79 -20 -3 -19 -7 -24 101 -4 106 -4 105 -52 167 -39 50 -51 85
-36 101 3 3 18 -5 32 -18 14 -13 41 -27 61 -31z"/>
<path d="M47 2518 c-9 -5 -12 -145 -12 -559 l1 -553 64 -1 65 0 0 468 c0 257
0 467 1 467 6 0 84 -112 84 -120 0 -6 4 -8 10 -5 6 3 10 1 10 -5 0 -11 137
-200 155 -212 6 -5 6 -8 0 -8 -5 0 -2 -5 8 -11 9 -5 17 -17 17 -24 0 -8 4 -15
8 -15 4 0 15 -12 24 -27 16 -28 31 -47 76 -103 12 -15 22 -33 22 -39 0 -6 4
-11 9 -11 5 0 22 -20 38 -45 15 -25 31 -45 36 -45 4 0 7 -6 7 -14 0 -8 3 -16
8 -18 9 -4 72 -85 72 -92 0 -3 6 -14 14 -23 8 -10 33 -41 55 -70 l40 -52 65 2
c35 1 68 5 72 9 11 12 11 1098 -1 1107 -16 11 -106 5 -114 -8 -4 -6 -7 -213
-6 -461 0 -247 -2 -450 -5 -450 -8 0 -29 26 -70 85 -19 27 -40 55 -45 61 -6 6
-28 36 -49 67 -22 32 -43 57 -48 57 -4 0 -8 5 -8 10 0 6 -21 39 -47 74 -27 35
-57 76 -68 92 -11 15 -26 33 -32 40 -7 7 -13 15 -13 19 0 8 -63 89 -72 93 -5
2 -8 8 -8 13 0 5 -7 17 -14 26 -17 20 -83 110 -106 143 -8 12 -23 32 -33 43
-10 12 -26 34 -35 50 -9 15 -20 27 -25 27 -4 0 -5 5 -2 10 3 6 -4 10 -17 11
-13 0 -45 1 -71 2 -27 1 -54 -1 -60 -5z"/>
<path d="M3060 2507 c0 -5 -5 -5 -10 -2 -20 13 -50 -6 -50 -31 0 -14 -5 -34
-11 -46 -6 -11 -13 -30 -15 -43 -2 -13 -15 -55 -28 -94 -13 -39 -22 -71 -19
-71 3 0 1 -6 -5 -12 -5 -7 -13 -29 -17 -48 -4 -19 -12 -41 -17 -47 -6 -7 -8
-13 -4 -13 3 0 0 -16 -8 -35 -9 -20 -15 -38 -16 -40 0 -10 -5 -26 -13 -45 -5
-14 -15 -57 -17 -72 0 -4 -9 -28 -20 -53 -11 -25 -20 -49 -20 -53 -4 -31 -24
-92 -31 -92 -8 0 -13 22 -10 43 0 4 -3 7 -7 7 -5 0 -9 6 -10 13 -1 17 -5 33
-27 102 -10 33 -19 67 -20 75 -1 8 -5 23 -9 33 -8 21 -15 46 -16 52 0 3 -8 24
-16 47 -9 24 -17 52 -19 63 -1 11 -3 20 -5 20 -1 0 -4 12 -6 27 -3 15 -11 39
-19 54 -8 15 -12 31 -9 36 3 5 1 15 -5 22 -6 7 -12 25 -13 40 -1 14 -5 26 -9
26 -3 0 -6 6 -7 13 -2 27 -14 72 -22 82 -8 10 -10 16 -10 35 0 6 -33 10 -80
10 -82 0 -86 -2 -71 -42 4 -13 19 -57 31 -98 13 -41 28 -88 34 -105 6 -16 11
-32 11 -35 0 -7 26 -92 35 -115 7 -17 42 -131 45 -145 4 -17 69 -222 81 -252
7 -21 11 -38 8 -38 -4 0 -2 -6 3 -12 5 -7 18 -42 28 -78 10 -36 22 -70 26 -75
6 -8 141 -13 169 -6 7 1 29 60 35 90 2 11 9 30 16 43 7 13 12 25 11 28 -1 3 8
37 20 75 12 39 22 72 23 75 1 3 4 12 8 20 5 15 69 218 73 233 1 4 2 8 4 10 2
2 5 16 14 54 2 12 10 31 16 42 6 12 8 21 5 21 -3 0 1 13 10 30 8 16 15 32 15
35 -2 47 13 23 40 -65 12 -41 31 -102 42 -135 11 -33 21 -67 23 -75 2 -8 4
-15 5 -15 1 0 3 -8 5 -18 2 -10 7 -26 11 -35 4 -9 8 -19 8 -22 9 -41 31 -108
39 -118 5 -7 7 -15 4 -19 -3 -3 0 -18 8 -34 8 -15 15 -37 15 -49 0 -11 4 -20
8 -20 4 0 9 -12 10 -26 1 -15 7 -33 13 -40 6 -8 9 -14 5 -14 -3 0 0 -15 8 -34
8 -19 13 -36 11 -38 -2 -2 38 -3 88 -3 66 0 92 4 93 13 1 6 2 13 4 15 1 1 3 9
5 17 2 8 22 71 44 139 23 68 41 128 41 132 0 4 5 20 12 36 6 15 10 32 9 37 -1
4 2 13 7 20 10 12 27 76 24 89 -1 4 3 7 10 7 6 0 9 3 5 6 -3 4 0 23 8 43 14
38 66 199 69 216 3 12 25 85 33 105 8 19 7 18 17 60 5 19 13 40 18 47 6 8 3
15 -11 23 -14 7 -21 7 -21 1 0 -7 -9 -7 -22 -2 -13 4 -34 5 -48 1 -14 -4 -30
-3 -36 2 -10 7 -25 -17 -34 -57 -1 -3 -5 -17 -10 -32 -36 -117 -63 -210 -63
-220 0 -7 -4 -13 -9 -13 -5 0 -6 -5 -3 -10 4 -6 1 -17 -5 -25 -7 -8 -9 -15 -5
-15 4 0 2 -7 -5 -15 -7 -8 -10 -15 -6 -15 3 0 0 -16 -8 -35 -8 -19 -13 -35
-11 -35 2 0 -2 -18 -10 -40 -8 -22 -15 -44 -16 -48 -1 -4 -3 -11 -5 -17 -3 -9
-26 -93 -29 -105 -13 -57 -38 -119 -45 -115 -4 3 -11 23 -15 45 -4 22 -10 40
-14 40 -4 0 -8 6 -9 13 -1 15 -5 29 -22 87 -8 25 -14 47 -14 50 -1 3 -6 19
-13 35 -13 34 -23 77 -20 86 1 3 -4 13 -12 22 -7 10 -10 17 -6 17 4 0 2 7 -5
15 -7 8 -10 15 -6 15 3 0 -1 17 -8 38 -18 46 -78 239 -78 249 0 4 -4 13 -10
20 -5 7 -7 16 -5 20 3 5 0 16 -7 25 -12 17 -126 31 -126 15z"/>
</g>
</svg>
