<?xml version="1.0" encoding="utf-8"?>
<!-- Generator: Adobe Illustrator 22.1.0, SVG Export Plug-In . SVG Version: 6.00 Build 0)  -->
<svg version="1.1" xmlns="http://www.w3.org/2000/svg" xmlns:xlink="http://www.w3.org/1999/xlink" x="0px" y="0px"
	 viewBox="0 0 500 500" style="enable-background:new 0 0 500 500;" xml:space="preserve">
<style type="text/css">
	.st0{fill:#FFFFFF;}
	.st1{fill:#19DFF4;}
	.st2{fill:#0BAFB7;}
	.st3{fill:#FDFEFF;}
	.st4{fill:#0DCAD3;}
	.st5{fill:#50F7FF;}
	.st6{fill:#2D292B;}
	.st7{fill:#3EC6C6;}
	.st8{opacity:0.1;fill:#070707;}
	.st9{fill:#752C52;}
	.st10{fill:#033747;}
	.st11{fill:#F5F9FC;}
	.st12{fill:#044C68;}
	.st13{fill:#EF65B4;}
	.st14{fill:#66244A;}
	.st15{fill:#FF9CF1;}
	.st16{fill:#DD379E;}
</style>
<g id="BACKGROUND">
	<rect class="st0" width="500" height="500"/>
</g>
<g id="OBEJCT">
	<g>
		<circle class="st1" cx="258.1" cy="241.8" r="192.8"/>
		<g>
			<path class="st2" d="M373.1,336.4c0,0-7.5-36.3,6.1-38.1c13.6-1.8,9.9,18.4,15.7,18.8c5.8,0.3-2-36.5,5.6-42
				c7.6-5.5,16.4,14.4,16.4,14.4s16.9-43.3,36.1-33.9c19.2,9.4-11,47.9-15.5,50.4c-4.5,2.6,24.2-11.3,24.6,3.3
				c0.2,7.8-36.6,23.6-31.2,26.1c5.5,2.5,21.4-3.4,19.4,7.4c-2,10.8-51.9,33.6-62,28.2C378.2,365.6,373.1,336.4,373.1,336.4z"/>
			<path class="st3" d="M388.7,367.8c0.1-0.2,10.6-21,22.3-43c15.6-29.6,25.7-47.2,29.9-52.3l0.7,0.6c-10,12-51.6,94.3-52.1,95.1
				L388.7,367.8z"/>
			<path class="st3" d="M413.6,320.8l-8.5-33.5l0.9-0.2l8.2,32.6c13.1-3.1,32.7-7.9,34-8.9l0.5,0.8c-1.9,1.3-31.4,8.3-34.8,9.1
				L413.6,320.8z"/>
			<path class="st3" d="M394.5,357.3l-0.2-0.3c-4-7-12.7-45-13.1-46.6l0.9-0.2c0.1,0.4,8.9,38.4,12.8,46.1
				c3.6-0.8,34.6-7.9,39.5-10.6l0.5,0.8c-5.3,3-38.7,10.5-40.1,10.8L394.5,357.3z"/>
		</g>
		<g>
			<path class="st4" d="M88.4,361c0,0-35.2-13.3-29.4-26c5.9-12.7,21.2,1.6,24.7-3.2c3.4-4.8-32.4-18.2-33-27.7s21.3-6.2,21.3-6.2
				s-28-38.2-9.5-49.5s35.1,35.6,34.8,40.8s3.5-26.9,16.3-19.3c6.8,4,0.3,44.4,5.4,41.1c5.1-3.3,8.8-20.2,17-12.6
				c8.2,7.6,0.5,62.9-9.6,68.6C116.2,372.6,88.4,361,88.4,361z"/>
			<path class="st3" d="M123.8,364.7c-0.1-0.2-12.2-20.6-24.8-42.6c-16.9-29.6-26.5-47.8-28.6-54.2l0.9-0.3
				c4.9,15.1,52.8,95.8,53.3,96.6L123.8,364.7z"/>
			<path class="st3" d="M97,317.7l-33.4-11l0.3-0.9l32.5,10.7c4.5-13,11-32.4,11-34.1l1,0c0.1,2.4-10,31.5-11.2,34.8L97,317.7z"/>
			<path class="st3" d="M118,354.1l-0.3,0c-8.2-0.4-45.6-13.6-47.2-14.2l0.3-0.9c0.4,0.1,37.8,13.4,46.6,14.1
				c1.3-3.6,12.1-34.1,12.4-39.8l0.9,0c-0.3,6.2-12.1,39-12.6,40.4L118,354.1z"/>
		</g>
		<g>
			<path class="st4" d="M298.5,345.3c0,0-15.8-27-5.4-32.2c10.4-5.2,12.9,12.1,17.6,10.8c4.7-1.3-11.5-28.7-6.9-35.2
				c4.6-6.5,17,7.1,17,7.1s1.8-39.3,19.7-36.9c17.9,2.3,4.1,41.3,1.2,44.6c-2.9,3.3,16.3-15.6,20.6-4c2.3,6.2-23,28.8-17.9,29.4
				c5,0.5,16.2-8.5,17.5,0.7c1.3,9.2-32.5,40.9-42,39.3C310.4,367.3,298.5,345.3,298.5,345.3z"/>
			<path class="st3" d="M319.5,366.2c0-0.2,2.8-19.7,6.2-40.5c4.5-27.9,7.8-44.7,9.8-49.9l0.7,0.3c-4.7,12.3-15.9,89.5-16,90.3
				L319.5,366.2z"/>
			<path class="st3" d="M326.7,321.8l-15.8-24.6l0.7-0.4l15.4,23.9c9.7-6,24-15.2,24.9-16.3l0.6,0.5c-1.2,1.6-22.9,15.1-25.4,16.7
				L326.7,321.8z"/>
			<path class="st3" d="M321.3,356.3l-0.2-0.2c-5.1-4.6-22.4-32.6-23.1-33.8l0.7-0.4c0.2,0.3,17.5,28.4,22.7,33.4
				c2.7-1.7,25.6-15.7,28.8-19.2l0.6,0.5c-3.4,3.8-28.2,18.9-29.2,19.5L321.3,356.3z"/>
		</g>
		<g>
			<path class="st2" d="M174.6,350.4c0,0-30.5-17.7-23.1-28.6c7.4-10.8,19.4,4.7,23.3,0.8c3.9-3.9-27.1-21.8-26.2-30.7
				c0.9-8.9,20.6-2.5,20.6-2.5s-20-39.5-1.1-47.2c18.9-7.6,26.9,38.3,25.9,43.1s7.3-24.3,18-15.4c5.7,4.8-6.6,41-1.3,38.8
				c5.3-2.3,11.2-17.3,17.6-9c6.4,8.3-9.2,58.2-19.4,61.9C198.5,365.5,174.6,350.4,174.6,350.4z"/>
			<path class="st3" d="M206.8,359.3c-0.1-0.2-8.1-20.9-16.4-43.2c-11-29.9-17.1-48.2-18-54.5l0.9-0.1c2.2,14.7,34,96.6,34.3,97.4
				L206.8,359.3z"/>
			<path class="st3" d="M189.3,311.8l-29.1-15.3l0.4-0.8l28.3,14.9c6.1-11.3,15.2-28.2,15.4-29.8l0.9,0.1
				c-0.3,2.2-14.1,27.6-15.7,30.5L189.3,311.8z"/>
			<path class="st3" d="M203,348.6l-0.3-0.1c-7.5-1.7-40-19.6-41.4-20.4l0.4-0.8c0.3,0.2,32.9,18.1,40.8,20.2
				c1.7-3.1,16.4-29.6,17.6-34.8l0.9,0.2c-1.3,5.6-17.2,34.1-17.9,35.3L203,348.6z"/>
		</g>
		<path class="st5" d="M451.3,399.4c0,28.5-89.7,51.6-200.4,51.6c-3.7,0-7.4,0-11.1-0.1h0c-1.4,0-2.9,0-4.3-0.1
			c-1.1,0-2.1,0-3.2-0.1c-0.6,0-1.2,0-1.8,0c-1.7,0-3.4-0.1-5-0.2c-0.2,0-0.5,0-0.8,0c-8.9-0.3-17.7-0.7-26.2-1.3c0,0-0.1,0-0.2,0
			C125,444.1,68.3,428.5,54.1,409c-2.3-3.1-3.5-6.3-3.5-9.6c0-28.5,89.7-51.6,200.4-51.6C361.6,347.7,451.3,370.8,451.3,399.4z"/>
		<path class="st1" d="M331.1,412l-91.2,39h0c-1.4,0-2.9,0-4.3-0.1c-1.1,0-2.1,0-3.2-0.1c-0.6,0-1.2,0-1.8,0c-1.7,0-3.4-0.1-5-0.2
			c-0.2,0-0.5,0-0.8,0c-8.6-0.3-17.4-0.8-26.2-1.3c0,0-0.1,0-0.2,0C125,444.1,68.3,428.5,54.1,409l124.4-27.6l20.6,27.1L331.1,412z"
			/>
		<path class="st6" d="M278.1,151.7c0,0-2.3-14-19.2-12.7c-16,1.3-24.8,13.1-25.3,24.5c-0.5,11.4-5,13.1-10.5,16.9
			c-10.9,7.6-16.7,35.7,2.1,44.3s54.3,13.6,57.6-4.3c3.3-17.9-1.2-21,3.6-32.2C289.3,181.4,293.6,157.1,278.1,151.7z"/>
		<g>
			<circle class="st0" cx="347.2" cy="139.9" r="35.4"/>
		</g>
		<g>
			<path class="st2" d="M218.2,120.8l-0.6-1.1c-2.7-4.9-9-6.4-13.6-3.2l-7.1,4.9l-20.2-6.5c-0.9-0.3-1.4,0.8-0.6,1.3l15.1,9.1
				l-21.8,14.9l-10.1-4.4c-0.4-0.2-1,0.7-0.7,1l6,6.7l-0.9,0.6c-0.9,0.6-1.2,1.9-0.7,2.9c0.5,1,1.8,1.4,2.8,1l30.1-13l-3.3,20.6
				c-0.2,1.1,1.2,1.4,1.6,0.4l10.2-24.7l12-5.2C218.4,125.3,219.3,122.8,218.2,120.8z"/>
			<polygon class="st0" points="49.9,197.4 54.5,206.4 155.7,150.7 154.5,148.4 			"/>
		</g>
		<polygon class="st7" points="276.8,303.3 277,303.1 277,303 		"/>
		<path class="st8" d="M290.9,246.4C290.9,246.5,290.9,246.5,290.9,246.4C290.9,246.5,290.9,246.5,290.9,246.4z"/>
		<path class="st8" d="M283.6,244.9c0,0,0.1,0,0.1,0C283.7,244.9,283.7,244.9,283.6,244.9z"/>
		<path class="st8" d="M290.5,246.2C290.5,246.3,290.5,246.3,290.5,246.2C290.5,246.3,290.5,246.3,290.5,246.2z"/>
		<path class="st8" d="M291.7,246.9C291.7,246.9,291.7,246.9,291.7,246.9C291.7,246.9,291.7,246.9,291.7,246.9z"/>
		<path class="st8" d="M292.8,247.7C292.8,247.7,292.8,247.7,292.8,247.7C292.8,247.7,292.8,247.7,292.8,247.7z"/>
		<path class="st8" d="M282.5,245.1c0.1,0,0.1,0,0.2,0C282.6,245,282.5,245,282.5,245.1z"/>
		<path class="st8" d="M292.1,247.1C292.1,247.1,292.1,247.2,292.1,247.1C292.1,247.2,292.1,247.1,292.1,247.1z"/>
		<path class="st8" d="M289.6,245.9C289.6,245.9,289.7,245.9,289.6,245.9C289.7,245.9,289.6,245.9,289.6,245.9z"/>
		<path class="st8" d="M282.8,245c0.1,0,0.2,0,0.4,0C283.1,245,282.9,245,282.8,245z"/>
		<path class="st8" d="M285.5,244.9c0,0,0.1,0,0.1,0C285.6,244.9,285.6,244.9,285.5,244.9z"/>
		<path class="st8" d="M286.9,245.1c0,0,0.1,0,0.1,0C287,245.1,287,245.1,286.9,245.1z"/>
		<path class="st8" d="M289.2,245.7C289.2,245.7,289.3,245.7,289.2,245.7C289.3,245.7,289.2,245.7,289.2,245.7z"/>
		<path class="st8" d="M286.5,245c0,0,0.1,0,0.1,0C286.6,245.1,286.5,245,286.5,245z"/>
		<path class="st8" d="M287.9,245.3c0,0,0.1,0,0.1,0C287.9,245.3,287.9,245.3,287.9,245.3z"/>
		<path class="st8" d="M284.1,244.9c0,0,0.1,0,0.1,0C284.2,244.9,284.1,244.9,284.1,244.9z"/>
		<path class="st8" d="M285.1,244.9c0,0,0.1,0,0.1,0C285.1,244.9,285.1,244.9,285.1,244.9z"/>
		<path class="st8" d="M288.3,245.4C288.3,245.4,288.4,245.4,288.3,245.4C288.4,245.4,288.3,245.4,288.3,245.4z"/>
		<path class="st8" d="M295.7,250.6C295.7,250.6,295.7,250.6,295.7,250.6C295.7,250.6,295.7,250.6,295.7,250.6z"/>
		<path class="st8" d="M281.8,245.2C281.8,245.2,281.9,245.2,281.8,245.2C281.9,245.2,281.8,245.2,281.8,245.2z"/>
		<path class="st8" d="M294.8,249.5C294.8,249.5,294.8,249.5,294.8,249.5C294.8,249.5,294.8,249.5,294.8,249.5z"/>
		<path class="st8" d="M295.1,249.9C295.1,249.9,295.1,249.9,295.1,249.9C295.1,249.9,295.1,249.9,295.1,249.9z"/>
		<polygon class="st8" points="296,251 296,251 296,251 		"/>
		<path class="st8" d="M293.2,247.9C293.2,248,293.2,248,293.2,247.9C293.2,248,293.2,248,293.2,247.9z"/>
		<path class="st8" d="M281.2,245.3C281.2,245.3,281.2,245.3,281.2,245.3C281.2,245.3,281.2,245.3,281.2,245.3z"/>
		<path class="st8" d="M280.8,245.4C280.8,245.4,280.8,245.4,280.8,245.4C280.8,245.4,280.8,245.4,280.8,245.4z"/>
		<path class="st8" d="M282.1,245.1c0,0,0.1,0,0.1,0C282.2,245.1,282.2,245.1,282.1,245.1z"/>
		<path class="st8" d="M294.2,248.9C294.2,248.9,294.2,248.9,294.2,248.9C294.2,248.9,294.2,248.9,294.2,248.9z"/>
		<path class="st8" d="M293.9,248.5C293.9,248.6,293.9,248.6,293.9,248.5C293.9,248.6,293.9,248.6,293.9,248.5z"/>
		<path class="st8" d="M281.5,245.2C281.5,245.2,281.5,245.2,281.5,245.2C281.5,245.2,281.5,245.2,281.5,245.2z"/>
		<path class="st9" d="M285.2,244.9c0.1,0,0.2,0,0.3,0C285.4,244.9,285.3,244.9,285.2,244.9z"/>
		<path class="st9" d="M281.2,245.3c0.1,0,0.2,0,0.3-0.1C281.4,245.3,281.3,245.3,281.2,245.3z"/>
		<path class="st9" d="M280.8,245.4c0.1,0,0.2-0.1,0.3-0.1C281.1,245.3,280.9,245.4,280.8,245.4z"/>
		<path class="st9" d="M281.9,245.2c0.1,0,0.2,0,0.3,0C282.1,245.1,282,245.1,281.9,245.2z"/>
		<path class="st9" d="M282.7,245c0.1,0,0.1,0,0.2,0C282.8,245,282.7,245,282.7,245z"/>
		<path class="st9" d="M285.6,244.9c0.3,0,0.6,0.1,0.9,0.1C286.2,245,285.9,245,285.6,244.9z"/>
		<path class="st9" d="M282.3,245.1c0.1,0,0.1,0,0.2,0C282.4,245.1,282.3,245.1,282.3,245.1z"/>
		<path class="st9" d="M283.7,244.9c0.1,0,0.2,0,0.3,0C284,244.9,283.9,244.9,283.7,244.9z"/>
		<path class="st9" d="M283.2,245c0.1,0,0.3,0,0.4,0C283.5,244.9,283.3,245,283.2,245z"/>
		<path class="st9" d="M281.5,245.2c0.1,0,0.2,0,0.3-0.1C281.7,245.2,281.6,245.2,281.5,245.2z"/>
		<path class="st9" d="M292.8,247.7c0.1,0.1,0.2,0.2,0.3,0.3C293.1,247.9,293,247.8,292.8,247.7z"/>
		<path class="st9" d="M295.1,249.9c0.2,0.2,0.4,0.5,0.6,0.7C295.5,250.3,295.3,250.1,295.1,249.9z"/>
		<path class="st9" d="M294.2,248.9c0.2,0.2,0.4,0.4,0.6,0.7C294.6,249.3,294.4,249.1,294.2,248.9z"/>
		<path class="st9" d="M293.2,248c0.2,0.2,0.5,0.4,0.7,0.6C293.6,248.3,293.4,248.2,293.2,248z"/>
		<path class="st9" d="M293.9,248.6c0.1,0.1,0.2,0.2,0.3,0.3C294.1,248.8,294,248.7,293.9,248.6z"/>
		<path class="st9" d="M294.8,249.5c0.1,0.1,0.2,0.2,0.3,0.3C295,249.8,294.9,249.6,294.8,249.5z"/>
		<path class="st9" d="M285.1,244.9c-0.3,0-0.6,0-0.9,0C284.5,244.9,284.8,244.9,285.1,244.9z"/>
		<path class="st9" d="M295.7,250.6c0.1,0.1,0.2,0.2,0.3,0.4C295.9,250.8,295.8,250.7,295.7,250.6z"/>
		<path class="st9" d="M292.1,247.2c0.2,0.2,0.5,0.3,0.7,0.5C292.6,247.5,292.3,247.3,292.1,247.2z"/>
		<path class="st9" d="M288.4,245.4c0.3,0.1,0.5,0.2,0.8,0.3C288.9,245.6,288.7,245.5,288.4,245.4z"/>
		<path class="st9" d="M286.6,245.1c0.1,0,0.2,0,0.3,0.1C286.8,245.1,286.7,245.1,286.6,245.1z"/>
		<path class="st9" d="M288,245.3c0.1,0,0.2,0.1,0.3,0.1C288.2,245.4,288.1,245.4,288,245.3z"/>
		<path class="st9" d="M287,245.1c0.3,0.1,0.6,0.1,0.8,0.2C287.6,245.2,287.3,245.2,287,245.1z"/>
		<path class="st9" d="M289.3,245.7c0.1,0,0.2,0.1,0.3,0.1C289.5,245.8,289.4,245.8,289.3,245.7z"/>
		<path class="st9" d="M291.7,246.9c0.1,0.1,0.2,0.1,0.3,0.2C292,247.1,291.8,247,291.7,246.9z"/>
		<path class="st9" d="M289.7,245.9c0.3,0.1,0.5,0.2,0.8,0.3C290.2,246.1,290,246,289.7,245.9z"/>
		<path class="st9" d="M290.9,246.5c0.3,0.1,0.5,0.3,0.8,0.4C291.4,246.8,291.2,246.6,290.9,246.5z"/>
		<path class="st9" d="M290.5,246.3c0.1,0.1,0.2,0.1,0.3,0.2C290.8,246.4,290.6,246.3,290.5,246.3z"/>
		<g>
			<g>
				<polygon class="st10" points="202.9,270.7 192.1,271.6 187.8,271.9 186.2,275.1 139.1,365.6 142.3,367.3 190.4,274.8 
					203.1,273.8 				"/>
				<path class="st10" d="M194.2,273.8c-1.1,2.1-3.6,2.9-5.7,1.8c-2.1-1.1-2.9-3.6-1.8-5.7s3.6-2.9,5.7-1.8S195.3,271.8,194.2,273.8
					z"/>
				<path class="st11" d="M203.7,263.6l1,8c0.1,0.4,0,0.8-0.1,1.2l-1.3,3.8c-0.4,1.2-1.5,2.1-2.7,2.3l-4.5,0.8l2.1-8.9l2.7-7.6
					L203.7,263.6z"/>
				<path class="st11" d="M199,262l-5.8,4.6l-2.2,2.3c-1.3,1.4-1.8,3.3-1.2,5.1l1.3,4.4l2.7,2l1.4,0.5l2.9-4l0.2-7.7l3.5-5.1
					L199,262z"/>
				<g>
					
						<rect x="170.7" y="268.4" transform="matrix(0.887 0.4618 -0.4618 0.887 167.7759 -43.6146)" class="st10" width="4.6" height="105"/>
					<path class="st10" d="M202.4,275.4c-1.3,2.5-4.4,3.5-6.8,2.2c-2.5-1.3-3.5-4.4-2.2-6.8c1.3-2.5,4.4-3.5,6.8-2.2
						C202.8,269.8,203.7,272.9,202.4,275.4z"/>
				</g>
				<g>
					<path class="st10" d="M158.6,324.3l-22.3-11.2c-4.7-2.4-10.6-0.6-13,3.9l-35.6,65.9c-2.5,4.5-0.6,10.2,4.1,12.6l22.3,11.2
						c4.7,2.4,10.6,0.6,13-3.9l35.6-65.9C165.2,332.3,163.4,326.7,158.6,324.3z"/>
					<path class="st6" d="M89.3,389.1l-1.5-6.2c0,0-6.6,11.3,5.7,18.7L89.3,389.1z"/>
					<path class="st6" d="M162.8,336.8l1.5,6.2c0,0,6.6-10.5-5.7-18.7l0.3,7.1L162.8,336.8z"/>
				</g>
				<path class="st12" d="M115.7,412.8l-22.3-11.2c-4.7-2.4-6.6-8-4.1-12.6l35.6-65.9c2.5-4.5,8.3-6.3,13-3.9l22.3,11.2
					c4.7,2.4,6.6,8,4.1,12.6l-35.6,65.9C126.3,413.4,120.4,415.2,115.7,412.8z"/>
				<path class="st0" d="M150.8,324.9l-0.3-4.7l-3.6-1.8l0.2,4.7c0,0.6-0.1,1.1-0.4,1.6L104.9,402l-2.3,4.2l3.9,1.9l2.3-4.2
					l40.3-74.9l1.3-2.5C150.7,326.1,150.8,325.5,150.8,324.9z"/>
				<g>
					<path class="st10" d="M133.9,416.7c-2.3,4.3-7.6,6-11.9,3.8c-4.3-2.3-6-7.6-3.8-11.9c2.3-4.3,7.6-6,11.9-3.8
						C134.4,407.1,136.1,412.4,133.9,416.7z"/>
					<path class="st0" d="M130.2,414.8c-1.2,2.3-4.1,3.2-6.4,2c-2.3-1.2-3.2-4.1-2-6.4c1.2-2.3,4.1-3.2,6.4-2
						C130.5,409.7,131.4,412.5,130.2,414.8z"/>
				</g>
			</g>
			<path class="st11" d="M297.6,268.2l5.8,6.4c1,1,1.6,2.3,1.9,3.7l1.2,5.8c0.2,0.9,0,1.9-0.5,2.8l-0.4,0.7
				c-0.6,0.9-1.5,1.6-2.5,1.8l-1.5,0.3c-0.6,0.1-1.1-0.3-1.1-0.9l-0.7-9.5c0-0.1-0.2-0.1-0.2,0l-0.8,5.4l-1-0.8
				c-1.2-1-2.1-2.4-2.4-4l-1-4.8l-1.4-6.9L297.6,268.2z"/>
			<path class="st13" d="M264.5,194.9l0.5-1c1.3-2.5,4.3-3.7,6.9-2.7c0.9,0.3,1.9,0.8,3,1.4c4.3,2.5,7.4,6.5,9,11.2
				c1.4,4.2,3.4,10.9,3.7,15.4c0.1,1.5,0.3,2.9,0.6,4.3l4,19.6c0.5,2.5,1.3,5,2.2,7.4l7.1,17.4l-9.8,5.7l-8.2-18
				c-2.8-6.3-4.9-12.9-6.2-19.7l-3-15.6l-3.6-16.1L264.5,194.9z"/>
			<path class="st11" d="M265.1,189.4l0.1-23.8l-15-0.1l-0.1,23.8c0,1.2-1,2.2-2.3,2.2l-5.8,0l-0.1,25.8l32.8,0.2l-4.7-22.8
				l-1.9-2.7C267,192,265.1,190.7,265.1,189.4z"/>
			<path class="st14" d="M253.2,165.6c-0.3,1.6-0.5,3.4-0.5,5.1c0,10,5.5,18,12.5,18.6l0.1-23.8L253.2,165.6z"/>
			<path class="st11" d="M278,168.3c0,10.3-6,18.7-13.3,18.6c-7.3,0-13.2-8.4-13.1-18.8c0-10.3,6-18.7,13.3-18.6
				C272.2,149.6,278.1,158,278,168.3z"/>
			<path class="st15" d="M250.1,189.8l11.4,10.6c1.2,1.1,3,1.3,4.4,0.6l0,0c1.7-0.9,2.6-2.9,2.2-4.8l-0.9-4.6l1.1-0.5
				c1.4,1.1,9.6,14.2,9.3,28l-3.1,47.1l-14.4-38.3l-6.7-9.3l-1-21.3L250.1,189.8z"/>
			<path class="st6" d="M270.7,148.4c0,0-3.6,10.4-17.5,14.4l-8.5,17.4l-4-14.2l6.6-10.3l8.8-6.8L270.7,148.4z"/>
			<path class="st11" d="M254.2,162.4c1.9,3.4,2,6.9,0.2,8c-1.8,1-4.9-0.8-6.8-4.2c-1.9-3.4-2-6.9-0.2-8
				C249.3,157.1,252.3,159,254.2,162.4z"/>
			<path class="st12" d="M250.3,267.9c0,0-5,28.3-10.9,40.1c-0.6,1.3-1.3,2.6-1.8,3.9l-5.3,12c-1.7,3.9-4.2,7.4-7.5,10.1
				c-1.1,0.9-2.3,1.8-3.6,2.6c-2,1.1-3.8,2.4-5.5,3.9c-4.4,3.9-12,10.7-14.5,14.3c-0.3,0.4-0.5,0.8-0.8,1.1L188,372.4l5.4,9.1
				c0.9,1.5,2.5,2.5,4.3,2.5l1,0l7.8-9.7c2.8-3.5,5.9-6.7,9.2-9.6l9.2-8.2c3.1-2.8,6.5-5.1,10.2-7.1l3.4-1.8
				c4.8-2.6,8.9-6.4,11.8-11l15.2-23.9c3.9-6.1,6.1-13,6.6-20.2l1.3-20.5L250.3,267.9z"/>
			<path class="st10" d="M197.8,383.9l1,0l7.8-9.7c2.8-3.5,5.9-6.7,9.2-9.6l9.2-8.2c3.1-2.8,6.5-5.1,10.2-7.1l3.4-1.8
				c4.8-2.6,8.9-6.4,11.8-11l15.2-23.9c2.9-4.6,5-9.7,6-15.1l-24.2-14.8L236,338.3l-27.1,22.8l-15.5,20.4
				C194.3,383,196,383.9,197.8,383.9z"/>
			<path class="st12" d="M234.3,261.8c0,0-9.9,22.3,4.2,36l27.9,30.2c1,1,2,2,3,3c2.1,2,6.7,7.4,5.4,15c0,0-1.5,16,6.4,27.7
				c1.5,2.2,3.2,4.1,4.5,6.4c2.7,4.7,6.3,11.9,6.3,16.7c0,0,8.9,3,16.6-5c0,0-1.4-2.3-3.2-5.8c-3.6-7-6.3-14.4-7.9-22
				c-2.1-9.6-5.4-26.3-5.3-34c0.1-3.1-0.5-6.1-1.7-8.9c-2.7-6.7-7.6-18.1-12-25.3c-0.9-1.4-1.7-2.9-2.5-4.4
				c-4-7.3-15.5-27.5-21.8-27.5L234.3,261.8z"/>
			<path class="st13" d="M252.8,191.4c0,0,8.1,12.6,9.3,14.9c0,0,9.9,15.6,11.3,38.4c0.4,6.4,4.8,23.4,0.6,29.4l-21.5-1.6
				c-6.6-0.5-13.3,0.6-19.4,3.4c-1.7,0.7-3.1,1.5-3.9,2.1l3.2-16.3c0.9-4.4,1.2-8.8,1.1-13.3l-1.1-41.2c-0.1-5.2,2.2-10.1,6.4-13.3
				l5.4-4.1c1.3-1,3-1.6,4.7-1.6l0,0C250.6,188.2,251.4,190.2,252.8,191.4z"/>
			<path class="st16" d="M249.1,220c5.2-8,5.4-13.1,4.7-15.2c-0.2-0.6-0.4-1.1-0.5-1.7c-2.6-9.2-8.4-7.7-13-4.7
				c-3.3,2.2-6,5.2-7.9,8.8l0.9,32.6l7.5-10.1C243.2,226.2,246.8,223.6,249.1,220z"/>
			<path class="st13" d="M237.3,197.2c4.6-3,10.4-4.5,13,4.7c0.2,0.6,0.3,1.1,0.5,1.7c0.7,2.1,0.5,7.2-4.7,15.2
				c-2.3,3.6-5.9,6.2-8.4,9.6l-12.5,17l-18.7,23.4l-11.6-6.4l22.4-33.1c1.3-2,2.5-4,3.6-6.2l8.1-16.5
				C230.9,202.8,233.7,199.6,237.3,197.2z"/>
		</g>
		<path class="st10" d="M331.1,412c-3.5,2.5-34.4,1.5-35.8,0.6c-1-0.7-1.5-10.1-1.8-15.3c2.7,0.4,8.6,0.6,14.1-4.4
			c1.2,2.5,3.7,5.8,8.3,6.8C323.8,401.4,334.6,409.5,331.1,412z"/>
		<path class="st10" d="M199.1,408.4c-3.9-1.2-20.5-25.5-20.6-27c0-1.1,6.8-6.8,10.7-10c1.2,2.3,4.4,6.9,11.3,8.3
			c-1.2,2.3-2.4,6-0.5,10.2C203.1,396.8,202.9,409.6,199.1,408.4z"/>
	</g>
</g>
</svg>
